<?xml version="1.0" encoding="UTF-8"?>
<svg xmlns="http://www.w3.org/2000/svg" id="color" height="512" viewBox="0 0 24 24" width="512" class="">
  <g>
    <path d="m12 0c-6.617 0-12 5.383-12 12s5.383 12 12 12 12-5.383 12-12-5.383-12-12-12z" fill="#2196f3" data-original="#2196F3" class="" style="fill:#FFFFFF" data-old_color="#2196f3"></path>
    <path d="m12 0c-6.617 0-12 5.383-12 12s5.383 12 12 12z" fill="#1d83d4" data-original="#1D83D4" class="" style="fill:#FFFFFF" data-old_color="#1d83d4"></path>
    <path d="m10.73 18.791-6.5-6.25c-.147-.142-.23-.337-.23-.541s.083-.399.23-.541l6.5-6.25c.475-.458 1.27-.119 1.27.541v3.25h5.75c.689 0 1.25.561 1.25 1.25v3.5c0 .689-.561 1.25-1.25 1.25h-5.75v3.25c0 .664-.798.995-1.27.541z" fill="#fff" data-original="#FFF" class="active-path" data-old_color="#fff" style="fill:#26608e"></path>
    <path d="m19 12h-15c0 .204.083.399.23.541l6.5 6.25c.15.145.334.21.514.21.385-.001.756-.299.756-.751v-3.25h5.75c.689 0 1.25-.561 1.25-1.25z" fill="#dedede" data-original="#DEDEDE" class="" style="fill:#26608e" data-old_color="#dedede"></path>
  </g>
</svg>
