<svg id="Layer_1" data-name="Layer 1" xmlns="http://www.w3.org/2000/svg" viewBox="0 0 925.75 119.43"><defs><style>.cls-1{fill:#fff;}.cls-2{fill:#f78c2a;}</style></defs><title>merkle-logo-no-reg</title><polygon class="cls-1" points="126.73 119.43 101.38 119.43 101.38 48.43 63.69 104.16 25.34 48.43 25.34 119.43 0 119.43 0 0 20.37 0 63.45 62.37 106.42 0 126.73 0 126.73 119.43"/><polygon class="cls-1" points="279.99 119.3 163.88 119.3 163.88 0 275.08 0 275.08 24.42 189.23 24.42 189.23 44.06 245.49 44.06 245.49 68.2 189.23 68.2 189.23 95.15 279.99 95.15 279.99 119.3"/><path class="cls-1" d="M528.61,306.71H500.17L468.67,258H427.23v48.7H401.88V187.55h79.75q17.52,0,28.27,8.62,11.68,9.43,11.67,26.54a34.31,34.31,0,0,1-6.7,20.9,37.09,37.09,0,0,1-18,13.07ZM496,222.52a10.43,10.43,0,0,0-3.18-7.91Q489.2,212,481.63,212H427.23v21.9h54.41q7.83,0,11.15-3a12.73,12.73,0,0,0,3.18-8.31" transform="translate(-93.63 -187.28)"/><polygon class="cls-1" points="583.88 119.43 554.14 119.43 510.02 59.94 491.9 75.42 491.9 119.43 466.56 119.43 466.56 0.27 491.9 0.27 491.9 44.85 544.72 0.27 580.1 0.27 528.15 44.29 583.88 119.43"/><polygon class="cls-1" points="719.35 119.3 612.12 119.3 612.12 0 637.48 0 637.48 95.15 719.35 95.15 719.35 119.3"/><polygon class="cls-1" points="858.41 119.3 742.3 119.3 742.3 0 853.5 0 853.5 24.42 767.65 24.42 767.65 44.06 823.91 44.06 823.91 68.2 767.65 68.2 767.65 95.15 858.41 95.15 858.41 119.3"/><polygon class="cls-2" points="871.26 119.43 925.75 65.88 925.75 119.43 871.26 119.43"/></svg>